<?xml version="1.0" standalone="no"?>
<!DOCTYPE svg PUBLIC "-//W3C//DTD SVG 20010904//EN"
 "http://www.w3.org/TR/2001/REC-SVG-20010904/DTD/svg10.dtd">
<svg version="1.0" xmlns="http://www.w3.org/2000/svg"
 width="512.000000pt" height="512.000000pt" viewBox="0 0 512.000000 512.000000"
 preserveAspectRatio="xMidYMid meet">
<metadata>
Created by potrace 1.14, written by Peter Selinger 2001-2017
</metadata>
<g transform="translate(0.000000,512.000000) scale(0.100000,-0.100000)"
fill="#000000" stroke="none">
<path d="M2479 5105 c-19 -9 -43 -29 -53 -45 -22 -37 -26 -129 -10 -192 7 -27
10 -48 8 -48 -8 0 70 -208 103 -274 112 -225 291 -415 490 -522 66 -35 198
-89 267 -109 63 -19 63 -14 -2 -84 -33 -35 -234 -299 -250 -327 -6 -11 -15
-12 -42 -4 -19 6 -48 13 -65 16 -16 2 -37 7 -45 9 -8 2 -37 6 -65 9 -27 3 -70
8 -95 11 -160 20 -454 -5 -610 -51 -29 -9 -61 -17 -69 -19 -102 -21 -371 -154
-511 -253 -105 -74 -312 -274 -381 -367 -153 -209 -249 -409 -308 -641 -40
-160 -50 -227 -54 -384 -3 -97 5 -257 16 -305 2 -11 8 -42 12 -70 33 -235 166
-534 336 -756 112 -147 347 -364 457 -420 15 -8 43 -25 62 -38 49 -32 188 -97
295 -135 205 -75 391 -104 627 -100 90 2 175 5 190 8 16 2 47 7 70 11 202 32
482 138 636 240 30 19 56 35 58 35 16 0 185 141 265 221 277 278 441 601 504
994 18 108 24 350 12 455 -32 276 -136 560 -289 790 -81 121 -97 140 -238 280
-151 150 -289 249 -478 340 l-83 40 79 97 c245 302 486 515 729 643 78 41 94
59 100 113 5 39 2 47 -27 75 -24 25 -40 32 -69 32 -63 0 -215 -69 -336 -154
-84 -59 -85 -59 -89 -44 -3 7 -16 51 -31 98 -83 264 -276 517 -495 649 -44 26
-236 122 -253 125 -7 2 -19 6 -27 9 -128 48 -281 67 -341 42z m218 -1784 c-6
-8 -29 -33 -49 -55 -40 -41 -42 -47 -39 -108 1 -25 -2 -38 -11 -39 -7 0 -20
-2 -28 -3 -8 -2 -39 -6 -69 -10 -29 -4 -56 -8 -60 -10 -3 -2 -22 -7 -42 -10
-86 -13 -310 -102 -424 -168 -203 -118 -400 -305 -529 -505 -25 -39 -46 -74
-46 -77 0 -3 -13 -27 -29 -54 -59 -100 -135 -326 -155 -457 -34 -230 -26 -434
26 -640 45 -182 162 -434 242 -524 20 -23 20 -23 1 -13 -31 16 -235 257 -235
278 0 3 -13 25 -28 48 -105 156 -201 445 -218 657 -24 312 31 597 166 856 186
357 479 616 858 759 81 30 248 71 327 80 33 3 61 7 63 9 1 1 68 2 147 2 128 0
143 -2 132 -16z m351 -98 c15 -23 52 -105 52 -117 0 -2 -26 3 -57 10 -32 7
-59 14 -60 14 -2 0 -42 0 -89 0 -99 0 -100 5 -11 63 94 62 137 69 165 30z
m477 -219 c72 -55 187 -168 255 -249 l25 -30 -25 20 c-13 11 -33 28 -45 38
-82 75 -352 247 -387 247 -22 0 -24 5 -33 68 l-7 54 68 -43 c38 -23 105 -71
149 -105z"/>
</g>
</svg>
